<!DOCTYPE svg PUBLIC "-//W3C//DTD SVG 1.1//EN" "http://www.w3.org/Graphics/SVG/1.1/DTD/svg11.dtd">
<!-- Uploaded to: SVG Repo, www.svgrepo.com, Transformed by: SVG Repo Mixer Tools -->
<svg fill="#ffffff" height="800px" width="800px" version="1.1" id="Layer_1" xmlns="http://www.w3.org/2000/svg" xmlns:xlink="http://www.w3.org/1999/xlink" viewBox="0 0 512.142 512.142" xml:space="preserve" stroke="#ffffff">
<g id="SVGRepo_bgCarrier" stroke-width="0"/>
<g id="SVGRepo_tracerCarrier" stroke-linecap="round" stroke-linejoin="round"/>
<g id="SVGRepo_iconCarrier"> <g> <g> <path d="M465.029,407.308l-20.27-51.982c-0.054-0.14-0.106-0.279-0.163-0.418l-21.392-54.859 c-0.012-0.032-0.026-0.064-0.037-0.096L338.749,83.466c-0.694-2.353-1.642-4.658-2.859-6.907c-0.032-0.059-0.061-0.12-0.093-0.179 c-0.024-0.044-0.045-0.089-0.07-0.134c-0.104-0.188-0.217-0.367-0.324-0.552c-0.043-0.072-0.083-0.145-0.127-0.216 c-10.813-18.441-34.809-23.012-65.093-17.29L106.545,34.35V21.333C106.545,9.551,96.994,0,85.212,0 C73.43,0,63.878,9.551,63.878,21.333v448c-11.782,0-21.333,9.551-21.333,21.333S52.096,512,63.878,512h42.667 c11.782,0,21.333-9.551,21.333-21.333s-9.551-21.333-21.333-21.333V216.985l171.592,230.232c0.09,0.126,0.184,0.248,0.277,0.372 l33.314,44.698c16.649,27.784,53.667,25.256,99.984-0.396C458.003,466.24,479.771,436.154,465.029,407.308z M295.562,399.198 c16.679-5.738,34.344-13.646,51.822-23.337c17.49-9.69,33.565-20.482,47.271-31.583l5.054,12.961 c-12.519,10.694-28.127,21.437-45.429,31.021c-17.321,9.609-34.706,17.154-50.402,22.096L295.562,399.198z M260.355,351.96 c18.831-5.819,39.249-14.625,59.473-25.831c20.205-11.203,38.509-23.848,53.425-36.735l4.959,12.717 c-13.213,12.325-31.151,25.15-51.512,36.431c-20.343,11.279-40.718,19.689-58.185,24.366L260.355,351.96z M289.637,106.597 c-0.332,0.413-0.678,0.832-1.03,1.254c-0.19,0.227-0.383,0.456-0.578,0.686c-0.369,0.435-0.742,0.871-1.131,1.314 c-0.148,0.169-0.306,0.341-0.457,0.511c-0.405,0.455-0.81,0.91-1.235,1.373c-13.445,14.64-34.732,30.695-59.572,44.461 c-24.844,13.768-49.744,23.311-69.282,26.954c-0.453,0.084-0.889,0.157-1.332,0.234c-0.418,0.073-0.841,0.149-1.251,0.216 c-0.497,0.081-0.982,0.153-1.466,0.225c-0.398,0.059-0.792,0.116-1.181,0.169c-0.468,0.064-0.932,0.125-1.387,0.18 c-0.4,0.048-0.787,0.089-1.177,0.13c-0.662,0.071-1.308,0.132-1.939,0.184c-0.457,0.037-0.916,0.076-1.356,0.103 c-0.384,0.024-0.751,0.038-1.122,0.055c-0.355,0.016-0.708,0.03-1.05,0.039c-0.358,0.009-0.71,0.016-1.054,0.018 c-0.343,0.002-0.674-0.002-1.004-0.008c-0.312-0.005-0.631-0.006-0.93-0.018c-0.012,0-0.023-0.002-0.035-0.002 c2.103-3.68,5.445-8.129,9.92-13.003c13.441-14.638,34.727-30.693,59.568-44.46c22.204-12.305,44.44-21.221,62.866-25.581 l18.927,2.757c-0.389,0.518-0.795,1.046-1.218,1.581C289.968,106.179,289.807,106.386,289.637,106.597z M188.876,89.893 c-24.536,13.597-45.949,28.736-62.105,44.151L115.17,78.723l74.329,10.828C189.292,89.666,189.084,89.778,188.876,89.893z M166.308,224.974c1.121-0.221,2.251-0.458,3.388-0.707c0.328-0.072,0.655-0.141,0.984-0.215c1.213-0.273,2.437-0.565,3.668-0.868 c0.415-0.102,0.831-0.206,1.248-0.311c1.205-0.306,2.417-0.624,3.638-0.958c0.433-0.119,0.868-0.242,1.303-0.364 c1.111-0.312,2.228-0.634,3.351-0.969c0.497-0.148,0.995-0.3,1.494-0.453c1.024-0.313,2.053-0.636,3.087-0.968 c0.473-0.152,0.945-0.301,1.42-0.457c1.198-0.393,2.404-0.802,3.614-1.219c0.545-0.188,1.091-0.378,1.639-0.571 c1.189-0.419,2.383-0.848,3.582-1.29c0.563-0.208,1.129-0.421,1.695-0.634c0.966-0.363,1.934-0.734,2.906-1.111 c0.758-0.295,1.518-0.594,2.279-0.897c0.911-0.363,1.824-0.732,2.74-1.107c0.601-0.246,1.201-0.491,1.805-0.742 c1.174-0.49,2.352-0.992,3.532-1.501c0.656-0.283,1.312-0.568,1.969-0.857c1.165-0.512,2.333-1.031,3.504-1.562 c0.664-0.301,1.329-0.608,1.995-0.915c0.848-0.391,1.697-0.787,2.548-1.187c0.96-0.452,1.921-0.909,2.884-1.373 c0.817-0.393,1.635-0.79,2.454-1.192c0.73-0.358,1.46-0.717,2.192-1.082c1.114-0.556,2.23-1.121,3.347-1.692 c0.729-0.373,1.459-0.749,2.19-1.129c1.128-0.586,2.257-1.178,3.388-1.779c0.746-0.397,1.493-0.8,2.241-1.204 c0.778-0.42,1.556-0.844,2.335-1.271c0.531-0.291,1.061-0.572,1.592-0.867c0.531-0.294,1.05-0.594,1.578-0.89 c0.775-0.434,1.547-0.869,2.315-1.305c0.751-0.427,1.501-0.854,2.246-1.284c1.094-0.632,2.18-1.267,3.261-1.904 c0.714-0.421,1.425-0.844,2.133-1.268c1.028-0.615,2.05-1.233,3.065-1.854c0.754-0.461,1.501-0.924,2.247-1.387 c0.746-0.463,1.487-0.928,2.225-1.394c0.951-0.601,1.896-1.203,2.834-1.808c0.74-0.477,1.476-0.955,2.208-1.434 c0.646-0.424,1.293-0.847,1.932-1.272c1.039-0.691,2.067-1.385,3.088-2.081c0.633-0.431,1.262-0.863,1.888-1.296 c0.964-0.667,1.92-1.335,2.867-2.005c0.644-0.456,1.28-0.913,1.916-1.371c0.702-0.505,1.398-1.011,2.089-1.518 c0.808-0.592,1.608-1.185,2.403-1.779c0.705-0.528,1.406-1.057,2.1-1.586c0.554-0.422,1.107-0.845,1.654-1.268 c0.943-0.731,1.874-1.465,2.796-2.199c0.535-0.426,1.065-0.852,1.592-1.279c0.904-0.732,1.801-1.465,2.683-2.2 c0.499-0.416,0.989-0.833,1.481-1.249c0.659-0.558,1.311-1.117,1.957-1.677c0.631-0.546,1.256-1.093,1.874-1.641 c0.673-0.596,1.339-1.193,1.997-1.79c0.444-0.403,0.889-0.807,1.326-1.211c0.834-0.771,1.653-1.542,2.461-2.314 c0.422-0.403,0.839-0.807,1.254-1.211c0.806-0.784,1.602-1.568,2.38-2.353c0.37-0.373,0.729-0.746,1.092-1.119 c0.602-0.619,1.195-1.237,1.779-1.856c0.238-0.252,0.49-0.504,0.725-0.756l40.792,104.61 c-13.327,13.87-33.69,29.087-57.411,42.239c-23.748,13.158-47.438,22.357-66.25,26.303l-67.101-90.033 C165.963,225.048,166.138,225.008,166.308,224.974z M424.382,428.98c-5.092,7.191-16.21,16.094-33.346,25.589 c-17.15,9.498-30.602,14.212-39.401,14.723c-3.797,0.22-3.775,0.231-3.409,0.89l-1.553-2.405l-16.057-21.545 c14.458-5.441,29.483-12.408,44.35-20.656c14.856-8.229,28.72-17.276,40.997-26.653l9.761,25.033l1.217,2.593 C426.578,425.892,426.581,425.875,424.382,428.98z"/> </g> </g> </g>
</svg>